Coordinates
version=1
nRows=40
nColumns=38
inDegrees=no

Units are S.I. units (second, meters, Newtons, ...)
If the header above contains a line with 'inDegrees', this indicates whether rotational values are in degrees (yes) or radians (no).

endheader
time	pelvis_tilt	pelvis_list	pelvis_rotation	pelvis_tx	pelvis_ty	pelvis_tz	hip_flexion_r	hip_adduction_r	hip_rotation_r	knee_angle_r	ankle_angle_r	subtalar_angle_r	mtp_angle_r	hip_flexion_l	hip_adduction_l	hip_rotation_l	knee_angle_l	ankle_angle_l	subtalar_angle_l	mtp_angle_l	lumbar_extension	lumbar_bending	lumbar_rotation	arm_flex_r	arm_add_r	arm_rot_r	elbow_flex_r	pro_sup_r	wrist_flex_r	wrist_dev_r	arm_flex_l	arm_add_l	arm_rot_l	elbow_flex_l	pro_sup_l	wrist_flex_l	wrist_dev_l
1.35	0.367992	1.44417	-1.91843	0.85395	-0.128891	1.03887	0.363693	-0.0372432	-0.185528	0.362934	-0.0893081	0	0	-0.380967	0.107169	-0.246628	0.231239	-0.116861	0	0	-0.298717	-0.0257091	-0.174678	-0.17092	-0.221872	-0.234272	0.585821	0.428226	0	0	0.205685	-0.940767	0.702613	0.833488	1.06711	0	0
1.36	0.364267	1.44597	-1.90999	0.853845	-0.139894	1.03763	0.362909	-0.0352235	-0.182121	0.371753	-0.0874988	0	0	-0.387978	0.102135	-0.246267	0.236864	-0.115856	0	0	-0.297509	-0.0214506	-0.178151	-0.17097	-0.220197	-0.240626	0.587458	0.434496	0	0	0.206003	-0.939954	0.702597	0.835024	1.06654	0	0
1.37	0.363386	1.44835	-1.9045	0.853662	-0.151127	1.03636	0.363579	-0.0332911	-0.176903	0.388111	-0.0855521	0	0	-0.393795	0.0969707	-0.245862	0.243748	-0.115129	0	0	-0.295245	-0.0173924	-0.181577	-0.172102	-0.218034	-0.248366	0.589926	0.440916	0	0	0.203093	-0.938628	0.699906	0.837029	1.06595	0	0
1.38	0.364649	1.45125	-1.90096	0.853463	-0.162639	1.03506	0.364823	-0.0313335	-0.170718	0.410237	-0.0842081	0	0	-0.398555	0.0916841	-0.245213	0.251744	-0.11483	0	0	-0.291816	-0.0132129	-0.185259	-0.174087	-0.215891	-0.256439	0.592536	0.447013	0	0	0.197598	-0.936727	0.69589	0.839085	1.06654	0	0
1.39	0.368979	1.45531	-1.90003	0.853289	-0.174452	1.03365	0.367975	-0.0300195	-0.166215	0.440141	-0.0821766	0	0	-0.401321	0.0858813	-0.244301	0.26176	-0.114227	0	0	-0.285146	-0.0092114	-0.192119	-0.175855	-0.21783	-0.250195	0.593776	0.44067	0	0	0.179089	-0.932581	0.67278	0.841883	1.07555	0	0
1.4	0.36565	1.45816	-1.89123	0.852968	-0.186477	1.03246	0.36808	-0.0279311	-0.164108	0.467943	-0.0873004	0	0	-0.405749	0.0791077	-0.241458	0.2718	-0.115639	0	0	-0.28183	-0.0037629	-0.195605	-0.179764	-0.215245	-0.261597	0.597373	0.44848	0	0	0.170496	-0.929607	0.668869	0.844675	1.07427	0	0
1.41	0.346338	1.46058	-1.86665	0.852635	-0.198464	1.03163	0.367665	-0.0256272	-0.164389	0.490077	-0.0978851	0	0	-0.409671	0.0707447	-0.239074	0.2841	-0.1177	0	0	-0.279507	0.0034333	-0.198491	-0.182457	-0.21333	-0.272245	0.599415	0.455961	0	0	0.161569	-0.925228	0.664832	0.846132	1.07437	0	0
1.42	0.304893	1.46187	-1.82056	0.852312	-0.210382	1.03136	0.365375	-0.0227405	-0.166667	0.501794	-0.107578	0	0	-0.414071	0.0602832	-0.23729	0.298994	-0.120726	0	0	-0.279531	0.0131276	-0.199872	-0.183524	-0.212425	-0.282111	0.599387	0.463622	0	0	0.153663	-0.91846	0.661491	0.845309	1.07607	0	0
1.43	0.246056	1.46199	-1.7583	0.851965	-0.222319	1.03164	0.36028	-0.0181581	-0.16951	0.507456	-0.11574	0	0	-0.418718	0.0485525	-0.236478	0.316129	-0.124709	0	0	-0.281396	0.0245663	-0.199542	-0.183989	-0.212843	-0.289761	0.598531	0.469693	0	0	0.145285	-0.909669	0.657268	0.843181	1.07883	0	0
1.44	0.177291	1.4612	-1.6882	0.851515	-0.234316	1.03237	0.35333	-0.0116637	-0.17151	0.515344	-0.129236	0	0	-0.422483	0.0365401	-0.238312	0.336327	-0.130307	0	0	-0.284364	0.0369231	-0.197211	-0.184056	-0.213886	-0.297212	0.597234	0.47545	0	0	0.133803	-0.898848	0.648316	0.840959	1.08157	0	0
1.45	0.110082	1.46071	-1.62285	0.850844	-0.24645	1.03335	0.347504	-0.00431302	-0.170619	0.528997	-0.147504	0	0	-0.423354	0.0255443	-0.24395	0.360854	-0.138554	0	0	-0.286449	0.0486039	-0.192508	-0.184187	-0.215059	-0.305264	0.595685	0.482865	0	0	0.117604	-0.885614	0.632237	0.838304	1.08514	0	0
1.46	0.0522568	1.46164	-1.56938	0.849942	-0.258791	1.03433	0.345359	0.00219011	-0.167864	0.547059	-0.159842	0	0	-0.420105	0.0160212	-0.251352	0.389697	-0.149045	0	0	-0.283853	0.0579568	-0.192834	-0.183124	-0.229172	-0.2666	0.591199	0.447799	0	0	0.0769579	-0.865383	0.573025	0.836305	1.11234	0	0
1.47	0.00425183	1.46339	-1.52725	0.848741	-0.271216	1.03536	0.344676	0.00829177	-0.161411	0.564701	-0.162384	0	0	-0.412126	0.00673053	-0.262934	0.425687	-0.164646	0	0	-0.280919	0.0652206	-0.186908	-0.182052	-0.224925	-0.289409	0.585977	0.474357	0	0	0.0609189	-0.856944	0.575631	0.83523	1.09375	0	0
1.48	-0.0278564	1.46284	-1.50059	0.847385	-0.283634	1.03659	0.340096	0.0133226	-0.156148	0.578966	-0.163752	0	0	-0.405612	-0.000614996	-0.267287	0.460202	-0.178008	0	0	-0.280422	0.0702988	-0.182034	-0.182905	-0.227764	-0.28536	0.582446	0.470322	0	0	0.0402267	-0.847052	0.566545	0.835079	1.09039	0	0
1.49	-0.0534574	1.46226	-1.47987	0.845884	-0.296011	1.03786	0.333935	0.0183791	-0.153247	0.590583	-0.162412	0	0	-0.395611	-0.00845519	-0.269849	0.500125	-0.19521	0	0	-0.279491	0.074185	-0.178025	-0.183694	-0.230314	-0.279935	0.578118	0.465288	0	0	0.01947	-0.837988	0.559745	0.834997	1.08685	0	0
1.5	-0.0782996	1.46182	-1.45846	0.844439	-0.308215	1.03915	0.326044	0.023228	-0.154466	0.597683	-0.160058	0	0	-0.381611	-0.0176603	-0.271779	0.54572	-0.214202	0	0	-0.278209	0.0780647	-0.175322	-0.184308	-0.232571	-0.274561	0.573628	0.460147	0	0	-0.000638211	-0.828957	0.55473	0.83441	1.0843	0	0
1.51	-0.103583	1.46177	-1.43465	0.843134	-0.320157	1.04041	0.316888	0.0269826	-0.160796	0.601017	-0.158684	0	0	-0.363164	-0.0275745	-0.271332	0.597589	-0.23273	0	0	-0.276706	0.0823024	-0.174009	-0.185174	-0.234612	-0.269424	0.570091	0.454405	0	0	-0.0198667	-0.819684	0.550498	0.833656	1.08276	0	0
1.52	-0.128358	1.46164	-1.40974	0.84187	-0.331837	1.04157	0.30569	0.0305064	-0.17007	0.600351	-0.156874	0	0	-0.341915	-0.0381866	-0.268646	0.65313	-0.247353	0	0	-0.276311	0.0870844	-0.173106	-0.186652	-0.236514	-0.264645	0.568115	0.447411	0	0	-0.0377093	-0.810324	0.546516	0.833546	1.08317	0	0
1.53	-0.162171	1.46431	-1.37476	0.840731	-0.343108	1.04246	0.29769	0.0341648	-0.178872	0.60005	-0.150734	0	0	-0.313961	-0.0485981	-0.26174	0.713611	-0.260802	0	0	-0.273227	0.0920973	-0.168663	-0.187153	-0.225982	-0.305353	0.565093	0.483036	0	0	-0.0377526	-0.809073	0.583793	0.832108	1.05333	0	0
1.54	-0.192632	1.46596	-1.34266	0.839602	-0.354025	1.04331	0.288213	0.0386574	-0.185582	0.598937	-0.146052	0	0	-0.285705	-0.0592061	-0.2536	0.774629	-0.270051	0	0	-0.271646	0.0969213	-0.167265	-0.18812	-0.227001	-0.304166	0.56388	0.477012	0	0	-0.0506936	-0.800682	0.587023	0.830923	1.05421	0	0
1.55	-0.213567	1.46687	-1.3197	0.83848	-0.364552	1.0442	0.277575	0.0430037	-0.189268	0.597387	-0.139801	0	0	-0.254951	-0.0653041	-0.234998	0.838838	-0.276425	0	0	-0.271824	0.100678	-0.16553	-0.188384	-0.228007	-0.301564	0.563052	0.470551	0	0	-0.0613492	-0.792945	0.592133	0.829608	1.05688	0	0
1.56	-0.229621	1.4667	-1.30202	0.837431	-0.374822	1.04513	0.266017	0.0474412	-0.190672	0.595696	-0.132829	0	0	-0.223807	-0.070132	-0.216043	0.903483	-0.27792	0	0	-0.27384	0.103992	-0.162795	-0.188498	-0.229389	-0.297945	0.563044	0.463001	0	0	-0.0708562	-0.784949	0.596698	0.828451	1.05974	0	0
1.57	-0.235742	1.46528	-1.29505	0.836437	-0.384962	1.04617	0.254007	0.0507188	-0.191924	0.595782	-0.12669	0	0	-0.194297	-0.0738295	-0.200124	0.965577	-0.270682	0	0	-0.277793	0.106207	-0.159116	-0.188477	-0.231112	-0.292906	0.563407	0.454531	0	0	-0.0805737	-0.776667	0.599118	0.827817	1.06262	0	0
1.58	-0.231016	1.46268	-1.30034	0.835372	-0.395044	1.0474	0.240337	0.0538269	-0.191205	0.59451	-0.122289	0	0	-0.166887	-0.0764598	-0.188384	1.02419	-0.25895	0	0	-0.28392	0.107164	-0.154179	-0.187888	-0.233242	-0.285552	0.563217	0.445145	0	0	-0.0909971	-0.767999	0.599099	0.827587	1.06627	0	0
1.59	-0.224664	1.46159	-1.30885	0.834296	-0.40507	1.04856	0.228315	0.0564899	-0.187899	0.593059	-0.113575	0	0	-0.13799	-0.0774817	-0.180269	1.08022	-0.235737	0	0	-0.289302	0.106888	-0.143085	-0.188548	-0.22759	-0.307421	0.563508	0.460697	0	0	-0.0877458	-0.764152	0.627851	0.825632	1.05064	0	0
1.6	-0.206577	1.46009	-1.33043	0.833072	-0.415017	1.04982	0.215302	0.0585825	-0.183265	0.590362	-0.107624	0	0	-0.109947	-0.0769347	-0.175373	1.13206	-0.21996	0	0	-0.29426	0.104498	-0.135562	-0.187498	-0.228853	-0.301599	0.561638	0.453015	0	0	-0.0975717	-0.755769	0.629665	0.82419	1.05131	0	0
1.61	-0.180603	1.45915	-1.36057	0.831815	-0.424945	1.051	0.20345	0.0590818	-0.178913	0.589704	-0.101209	0	0	-0.0817622	-0.0750249	-0.172616	1.17913	-0.207533	0	0	-0.298296	0.100505	-0.128242	-0.186704	-0.229781	-0.2957	0.559682	0.444756	0	0	-0.109127	-0.747106	0.628866	0.82273	1.05104	0	0
1.62	-0.149208	1.45876	-1.39662	0.830611	-0.434853	1.05213	0.191417	0.0586695	-0.174058	0.587721	-0.0942992	0	0	-0.0532908	-0.0723927	-0.171677	1.22089	-0.197873	0	0	-0.301644	0.0954996	-0.12091	-0.186154	-0.230541	-0.290456	0.557666	0.435108	0	0	-0.121567	-0.737825	0.626	0.820957	1.0513	0	0
1.63	-0.114132	1.4583	-1.43638	0.829502	-0.444764	1.05326	0.178337	0.0574197	-0.170118	0.583939	-0.0875206	0	0	-0.025113	-0.0698486	-0.17246	1.25709	-0.18976	0	0	-0.304765	0.0900064	-0.1139	-0.186083	-0.231371	-0.285402	0.555872	0.424971	0	0	-0.134988	-0.727953	0.621047	0.819109	1.05204	0	0
1.64	-0.0688808	1.45632	-1.48631	0.828343	-0.454572	1.05455	0.163126	0.0551589	-0.167444	0.579025	-0.0834477	0	0	0.000826286	-0.0667878	-0.174185	1.28646	-0.184278	0	0	-0.310011	0.0839527	-0.107451	-0.185909	-0.232004	-0.280559	0.554206	0.416682	0	0	-0.148314	-0.717974	0.61602	0.817285	1.05331	0	0
1.65	-0.0301466	1.45663	-1.52932	0.827417	-0.464286	1.05567	0.150224	0.0522236	-0.163978	0.573987	-0.0726302	0	0	0.0296225	-0.0636583	-0.176194	1.31155	-0.169188	0	0	-0.310252	0.0768732	-0.104046	-0.179801	-0.226183	-0.2963	0.544252	0.432678	0	0	-0.162854	-0.70944	0.615003	0.814654	1.04197	0	0
1.66	0.0109768	1.45439	-1.57477	0.826402	-0.473886	1.05695	0.134445	0.049207	-0.162746	0.567486	-0.0683288	0	0	0.054248	-0.060554	-0.178946	1.32876	-0.159146	0	0	-0.314427	0.0702975	-0.0996189	-0.176946	-0.225966	-0.292747	0.538827	0.427954	0	0	-0.176814	-0.699635	0.609655	0.811943	1.04074	0	0
1.67	0.0502488	1.45196	-1.61809	0.825397	-0.483413	1.05814	0.118942	0.0456559	-0.163963	0.560951	-0.0645122	0	0	0.0776574	-0.0573517	-0.181995	1.33979	-0.148597	0	0	-0.318623	0.0636522	-0.0955261	-0.174262	-0.225744	-0.288778	0.533519	0.423569	0	0	-0.190634	-0.689819	0.603954	0.809388	1.03908	0	0
1.68	0.0878609	1.44893	-1.65982	0.824319	-0.492885	1.05933	0.102786	0.0421986	-0.165457	0.553557	-0.0608945	0	0	0.0993971	-0.0541258	-0.185448	1.34457	-0.138322	0	0	-0.323333	0.0566748	-0.0915428	-0.171493	-0.225364	-0.284634	0.528247	0.419098	0	0	-0.204322	-0.680146	0.598161	0.80659	1.03734	0	0
1.69	0.12197	1.44557	-1.69814	0.823146	-0.502304	1.06046	0.086426	0.0391047	-0.16672	0.545959	-0.0572509	0	0	0.120002	-0.0514567	-0.190079	1.34391	-0.128423	0	0	-0.328283	0.0495392	-0.0874711	-0.168878	-0.224762	-0.280641	0.523536	0.41416	0	0	-0.2177	-0.670754	0.592277	0.803921	1.03566	0	0
1.7	0.151221	1.44234	-1.73173	0.821966	-0.511716	1.06145	0.0703382	0.0364306	-0.167353	0.538643	-0.0538961	0	0	0.139866	-0.0498882	-0.196449	1.33807	-0.119536	0	0	-0.332924	0.0427536	-0.0832624	-0.16709	-0.224182	-0.2768	0.520183	0.40907	0	0	-0.230743	-0.661386	0.586832	0.801061	1.03451	0	0
1.71	0.185301	1.43964	-1.77026	0.820636	-0.521259	1.06214	0.0562131	0.0329627	-0.168668	0.534183	-0.0520635	0	0	0.158974	-0.0483216	-0.203703	1.32689	-0.11356	0	0	-0.337353	0.0362798	-0.0784286	-0.167004	-0.223709	-0.274122	0.51852	0.404705	0	0	-0.242987	-0.652058	0.583248	0.797988	1.03501	0	0
1.72	0.204256	1.43521	-1.79388	0.819766	-0.530785	1.06311	0.0378764	0.0296583	-0.168374	0.525885	-0.0432943	0	0	0.174446	-0.0480473	-0.214647	1.30924	-0.103263	0	0	-0.341078	0.0290158	-0.077139	-0.162568	-0.219598	-0.283784	0.513457	0.416818	0	0	-0.255279	-0.645075	0.588558	0.794817	1.01175	0	0
1.73	0.224494	1.43165	-1.81814	0.818802	-0.540427	1.06375	0.0211684	0.0266065	-0.169268	0.518827	-0.0394021	0	0	0.189292	-0.0481	-0.225194	1.28726	-0.0987613	0	0	-0.344962	0.0230773	-0.0747356	-0.162168	-0.219208	-0.281027	0.512688	0.413201	0	0	-0.268892	-0.634938	0.583302	0.790725	1.00812	0	0
1.74	0.240692	1.42875	-1.83824	0.817907	-0.550082	1.06413	0.00526064	0.0240249	-0.169971	0.512055	-0.0354505	0	0	0.203561	-0.0490037	-0.23717	1.2611	-0.0959635	0	0	-0.348298	0.0178924	-0.0726349	-0.162259	-0.219132	-0.278159	0.513102	0.409831	0	0	-0.282496	-0.624453	0.577597	0.786362	1.00472	0	0
